 <svg  version="1.0" xmlns="http://www.w3.org/2000/svg"  width="300.000000pt" height="416.000000pt" viewBox="0 0 300.000000 416.000000"  preserveAspectRatio="xMidYMid meet">  <g transform="translate(0.000000,416.000000) scale(0.100000,-0.100000)" fill="#b0d6f7" stroke="none"> <path d="M1305 4126 c22 -29 44 -46 60 -46 2 0 -13 18 -32 40 -44 49 -64 53 -28 6z"/> <path d="M1180 4126 c0 -6 61 -36 73 -36 6 0 2 9 -8 20 -15 17 -65 29 -65 16z"/> <path d="M863 4111 c-47 -8 -143 -50 -143 -62 0 -4 25 4 56 18 63 29 150 39 212 25 23 -5 42 -6 42 -2 0 19 -105 32 -167 21z"/> <path d="M1410 4090 c-7 -14 -8 -26 0 -39 8 -16 6 -21 -9 -26 -27 -8 -34 -34 -16 -61 19 -29 44 -30 110 -5 54 21 55 22 36 66 -30 72 -98 108 -121 65z m91 -48 c17 -19 28 -39 26 -45 -2 -7 -20 -18 -41 -24 -67 -23 -114 7 -66 40 16 11 19 21 15 40 -6 22 -4 26 15 24 12 -1 35 -17 51 -35z"/> <path d="M1180 4082 c0 -7 79 -52 93 -52 20 0 2 18 -38 38 -50 24 -55 26 -55 14z"/> <path d="M1289 4065 c37 -17 81 -21 66 -6 -6 6 -30 13 -55 16 l-45 6 34 -16z"/> <path d="M1090 4064 c0 -9 68 -34 92 -33 15 1 8 5 -19 12 -23 7 -45 15 -49 20 -9 8 -24 10 -24 1z"/> <path d="M1015 4049 c-8 -11 27 -49 45 -49 5 0 10 7 10 15 0 8 -5 14 -11 13 -6 -2 -14 3 -17 11 -3 10 0 12 11 8 9 -3 19 -2 22 3 4 6 -7 10 -24 10 -16 0 -33 -5 -36 -11z"/> <path d="M2582 3996 c18 -31 36 -56 40 -56 11 0 -45 103 -59 108 -7 2 2 -21 19 -52z"/> <path d="M1574 4001 c20 -21 58 -49 84 -62 41 -21 61 -24 157 -24 98 0 122 4 215 34 89 30 124 35 235 41 l130 6 -76 8 c-90 10 -175 -2 -314 -43 -55 -16 -120 -32 -145 -35 -94 -13 -219 26 -277 86 -15 15 -31 28 -37 28 -5 0 7 -17 28 -39z"/> <path d="M2680 4006 c-14 -43 -8 -92 11 -89 92 10 118 27 99 62 -6 12 -17 21 -25 21 -7 0 -17 9 -20 20 -4 13 -15 20 -30 20 -18 0 -26 -8 -35 -34z m69 -22 c27 -29 21 -40 -27 -50 -31 -6 -32 -6 -32 28 0 56 20 63 59 22z"/> <path d="M495 4020 c9 -15 64 -29 71 -19 3 6 16 9 27 8 12 0 31 0 42 1 15 1 12 4 -10 11 -36 10 -137 10 -130 -1z"/> <path d="M1886 4005 c-20 -31 -20 -41 0 -49 20 -8 66 3 59 14 -3 5 -14 6 -25 3 -24 -6 -27 12 -4 25 9 5 14 14 10 21 -11 17 -22 13 -40 -14z"/> <path d="M2450 4020 c0 -5 6 -10 13 -10 7 0 28 -16 47 -35 31 -32 97 -62 109 -50 2 3 -9 8 -26 11 -16 3 -36 15 -44 26 -8 11 -21 28 -29 37 -18 21 -70 36 -70 21z"/> <path d="M725 3989 c-9 -17 -14 -37 -11 -45 6 -16 36 -19 36 -4 0 6 10 8 24 4 32 -8 40 8 14 30 -16 14 -20 15 -15 3 4 -10 -2 -16 -19 -20 -27 -5 -31 5 -9 23 8 7 15 19 15 26 0 24 -19 15 -35 -17z"/> <path d="M583 3977 c-42 -16 -52 -27 -22 -27 13 0 38 9 54 20 33 22 18 25 -32 7z"/> <path d="M1518 3953 c-29 -11 -38 -21 -38 -39 0 -21 9 -29 32 -25 4 0 12 -8 18 -19 26 -48 66 -4 55 61 -7 43 -13 45 -67 22z m52 -33 c0 -34 -4 -35 -43 -17 -31 14 -34 22 -9 36 33 20 52 13 52 -19z"/> <path d="M2340 3950 c-12 -8 -11 -10 8 -10 12 0 45 -11 72 -25 65 -33 75 -32 22 3 -23 16 -39 32 -35 35 10 11 -50 8 -67 -3z"/> <path d="M630 3932 l-22 -18 27 -18 c18 -12 30 -15 37 -8 14 14 1 32 -17 25 -8 -3 -15 -1 -15 5 0 6 6 12 13 15 6 2 9 7 6 11 -3 4 -16 -2 -29 -12z"/> <path d="M2310 3899 c-33 -13 -100 -60 -100 -70 0 -4 20 1 44 12 40 17 52 18 116 8 64 -10 92 -8 79 6 -3 2 -37 8 -77 11 -39 4 -69 11 -66 15 3 5 14 9 24 9 10 0 22 5 25 10 8 12 -12 12 -45 -1z"/> <path d="M2737 3900 c-27 -5 -51 -11 -54 -14 -7 -6 24 -140 43 -185 37 -88 108 -118 160 -66 15 16 23 32 20 41 -3 9 -9 27 -12 40 -6 21 -3 24 25 24 83 0 96 117 16 154 -35 17 -116 19 -198 6z m166 -48 c20 -21 21 -24 7 -50 -9 -15 -26 -28 -38 -30 -17 -3 -21 -8 -17 -22 10 -31 -12 -60 -45 -60 -34 0 -66 35 -79 89 -23 92 -23 89 6 94 16 3 54 4 86 3 44 -2 63 -7 80 -24z m57 -38 c0 -17 -35 -54 -52 -54 -6 0 -3 8 7 20 13 15 16 29 12 57 l-6 38 19 -24 c11 -13 20 -29 20 -37z m-94 -142 c-9 -28 -52 -34 -79 -11 l-22 19 30 -6 c19 -3 38 0 50 10 24 17 29 14 21 -12z"/> <path d="M1663 3883 c-33 -16 -43 -33 -22 -33 12 0 79 39 79 46 0 8 -26 2 -57 -13z"/> <path d="M1800 3872 c-47 -57 -60 -82 -45 -82 8 0 26 18 40 41 27 42 31 73 5 41z"/> <path d="M2549 3846 c-121 -48 -165 -72 -214 -118 -55 -50 -70 -91 -53 -144 14 -41 66 -84 102 -84 12 0 39 9 61 20 48 25 45 25 43 -3 -3 -36 20 -82 51 -100 61 -36 132 -12 166 53 17 34 20 136 4 195 -24 94 -63 215 -68 215 -3 -1 -45 -16 -92 -34z m91 -35 c0 -51 10 -78 21 -59 6 8 8 0 7 -22 -1 -19 0 -60 1 -90 l4 -55 6 45 7 45 8 -51 c11 -71 -7 -131 -45 -152 -16 -9 -27 -22 -25 -27 2 -6 -6 -12 -17 -13 -17 -1 -19 1 -7 8 13 8 12 10 -3 10 -38 0 -77 34 -89 75 -6 22 -12 41 -13 43 -1 1 -15 -4 -31 -13 -54 -28 -83 -17 -140 57 -14 18 13 84 47 115 37 33 119 75 135 69 8 -3 13 -2 10 3 -5 8 83 47 112 50 8 1 12 -13 12 -38z"/> <path d="M2370 3656 c0 -13 35 -76 42 -76 13 0 9 17 -7 30 -8 7 -15 18 -15 26 0 7 -4 16 -10 19 -5 3 -10 4 -10 1z"/> <path d="M2646 3545 c-18 -27 -60 -33 -99 -14 -21 10 -21 10 -3 -5 29 -23 81 -20 106 6 18 20 26 38 16 38 -2 0 -11 -11 -20 -25z"/> <path d="M1673 3829 c-26 -23 -50 -46 -51 -51 -6 -14 49 2 83 24 22 14 24 18 8 13 -27 -7 -26 18 3 40 10 8 16 15 12 15 -4 0 -28 -19 -55 -41z"/> <path d="M220 3624 c-14 -35 -13 -59 4 -98 17 -40 35 -55 33 -26 -1 11 -5 20 -9 20 -8 0 -10 16 -9 88 1 48 -5 53 -19 16z"/> <path d="M2780 3536 c0 -13 3 -31 6 -40 8 -20 34 -21 34 -1 0 8 7 15 15 15 21 0 19 9 -7 31 -31 25 -48 24 -48 -5z"/> <path d="M2742 3510 c-3 -72 -20 -119 -78 -215 -60 -102 -80 -171 -70 -253 7 -63 39 -143 67 -168 25 -22 24 -9 -1 23 -27 35 -50 116 -50 178 0 69 21 136 69 217 57 98 73 145 68 208 -3 53 -3 53 -5 10z"/> <path d="M316 3511 c-22 -24 -56 -91 -46 -91 15 0 42 39 34 52 -4 7 -4 10 1 6 7 -7 45 32 45 46 0 12 -17 5 -34 -13z"/> <path d="M200 3470 c0 -5 -9 -10 -20 -10 -27 0 -25 -25 2 -44 40 -28 58 -21 58 24 0 33 -3 40 -20 40 -11 0 -20 -4 -20 -10z m30 -30 c0 -13 -7 -20 -20 -20 -23 0 -26 10 -8 28 18 18 28 15 28 -8z"/> <path d="M355 3446 c-36 -16 -83 -56 -66 -56 17 0 111 53 111 63 0 10 -10 8 -45 -7z"/> <path d="M385 3385 c-5 -2 -32 -6 -59 -10 -35 -5 -45 -9 -35 -16 19 -12 54 -11 101 3 26 8 35 14 26 20 -14 8 -17 8 -33 3z"/> <path d="M235 3315 c-9 -67 6 -136 51 -232 48 -104 57 -151 52 -255 -7 -112 10 -95 19 20 6 88 0 116 -55 232 -41 87 -62 181 -54 245 2 25 2 45 -1 45 -3 0 -9 -25 -12 -55z"/> <path d="M2570 3350 c-13 -8 -12 -11 5 -24 24 -18 35 -12 28 14 -6 22 -11 24 -33 10z"/> <path d="M2750 3288 c-7 -147 -4 -182 18 -224 21 -41 52 -75 52 -56 0 14 -39 99 -40 87 -1 -5 -5 -1 -10 10 -11 26 -12 162 -1 169 10 7 7 48 -6 70 -6 11 -10 -7 -13 -56z"/> <path d="M2695 3285 c-19 -40 -25 -64 -20 -83 l7 -27 14 34 c16 38 19 63 4 41 -8 -13 -10 -13 -10 2 0 9 6 21 13 25 13 7 33 63 23 63 -2 0 -16 -25 -31 -55z"/> <path d="M2600 3253 c-17 -26 -35 -66 -41 -88 -14 -51 -7 -192 11 -208 10 -10 11 -8 5 8 -28 73 -13 194 36 283 36 65 29 68 -11 5z"/> <path d="M2670 2838 c-11 -4 -20 -12 -20 -17 0 -20 55 -60 114 -83 34 -12 64 -24 69 -26 4 -2 5 3 1 11 -7 18 -47 37 -80 37 -14 0 -40 15 -62 36 l-37 35 33 -6 c22 -5 32 -3 32 6 0 8 5 6 13 -5 9 -12 23 -16 50 -13 54 5 54 13 0 25 -53 11 -82 11 -113 0z"/> <path d="M2565 2816 c-86 -37 -128 -117 -70 -132 14 -3 31 -4 39 -1 9 4 17 -2 21 -13 8 -24 39 -34 65 -20 25 14 27 66 3 133 -19 52 -17 51 -58 33z m43 -41 c27 -59 5 -100 -41 -77 -12 5 -30 13 -39 16 -29 9 -21 44 15 66 42 26 51 25 65 -5z"/> <path d="M213 2784 c-7 -3 -13 -17 -13 -30 0 -20 -5 -24 -28 -24 -33 0 -52 -16 -52 -45 0 -39 50 -70 127 -81 l50 -6 7 57 c11 94 -32 154 -91 129z m56 -48 c13 -20 21 -50 21 -76 l0 -43 -41 7 c-63 10 -101 33 -97 59 2 16 11 23 31 25 16 2 30 10 33 18 2 8 6 21 9 29 7 24 22 18 44 -19z"/> <path d="M356 2717 c-11 -8 -20 -32 -23 -60 l-6 -47 41 0 c52 0 93 30 73 54 -7 9 -20 16 -27 16 -8 0 -14 6 -14 14 0 24 -25 37 -44 23z m44 -52 c15 -29 15 -30 -22 -39 -33 -7 -41 4 -28 38 12 33 33 33 50 1z"/> <path d="M2670 2707 c0 -13 6 -32 14 -42 14 -19 15 -19 41 8 23 22 25 29 15 42 -7 8 -25 15 -41 15 -24 0 -29 -4 -29 -23z"/> <path d="M2635 2629 c-9 -13 0 -22 25 -26 23 -3 26 7 8 25 -15 15 -25 15 -33 1z"/> <path d="M2737 2633 c-11 -10 -8 -69 4 -119 11 -41 10 -47 -16 -86 -15 -22 -29 -60 -31 -82 -4 -32 -2 -36 5 -20 5 12 14 25 20 28 6 4 8 13 4 21 -3 8 1 15 8 15 7 0 10 3 6 6 -3 3 2 20 12 38 14 23 16 38 9 56 -5 14 -10 53 -11 87 -1 35 -2 63 -3 63 0 0 -4 -3 -7 -7z"/> <path d="M415 2560 c10 -11 28 -20 39 -20 18 0 17 3 -9 20 -39 26 -53 26 -30 0z"/> <path d="M320 2537 c9 -40 18 -57 30 -57 5 0 1 18 -9 40 -24 54 -31 59 -21 17z"/> <path d="M281 2542 c-13 -25 -14 -52 -2 -52 9 0 24 60 17 67 -2 3 -9 -4 -15 -15z"/> <path d="M360 2556 c0 -20 22 -45 50 -56 37 -15 52 -7 18 10 -12 7 -33 22 -45 33 -13 11 -23 17 -23 13z"/> <path d="M221 2495 c-12 -32 -20 -76 -19 -103 1 -41 2 -42 5 -12 5 36 26 122 38 153 4 9 5 17 2 17 -3 0 -15 -25 -26 -55z"/> <path d="M2756 2392 c-4 -18 -5 -36 -2 -39 11 -12 17 5 14 39 l-3 33 -9 -33z"/> <path d="M141 2363 c-5 -10 -13 -16 -18 -13 -4 3 -9 -4 -11 -16 -3 -19 30 -44 57 -44 13 0 20 53 10 72 -12 23 -25 23 -38 1z m29 -33 c0 -11 -6 -20 -14 -20 -21 0 -31 21 -15 31 22 14 29 11 29 -11z"/> <path d="M2796 2365 c4 -11 15 -49 25 -85 19 -72 25 -59 8 18 -5 28 -17 58 -25 68 -15 18 -15 18 -8 -1z"/> <path d="M201 2278 c-1 -41 7 -77 25 -123 36 -89 46 -90 17 -2 -13 40 -28 97 -32 127 l-9 55 -1 -57z"/> <path d="M2856 2233 c-8 -8 -8 -58 0 -66 8 -8 64 20 64 32 0 18 -53 45 -64 34z"/> <path d="M335 2144 c-22 -43 -25 -58 -16 -67 10 -9 15 -8 24 8 12 19 37 92 37 108 0 22 -20 0 -45 -49z"/> <path d="M2819 2104 c-9 -38 -15 -71 -13 -73 6 -6 35 109 32 126 -2 9 -10 -14 -19 -53z"/> <path d="M271 2065 c0 -5 7 -30 15 -55 9 -25 20 -81 24 -125 l7 -80 2 69 c0 38 -4 87 -11 109 -10 32 -10 41 0 45 14 4 16 42 3 42 -5 0 -11 -10 -14 -22 -4 -23 -4 -23 -15 2 -6 14 -11 21 -11 15z"/> <path d="M2630 2065 c0 -3 8 -13 18 -22 66 -63 83 -68 31 -8 -28 31 -49 44 -49 30z"/> <path d="M2750 1917 c0 -67 18 -107 49 -107 22 0 41 19 41 43 0 13 5 17 19 12 18 -5 51 17 51 34 0 5 -9 20 -20 34 -18 22 -87 47 -130 47 -6 0 -10 -28 -10 -63z m77 33 c17 -6 35 -22 42 -36 6 -14 8 -23 4 -21 -12 7 -48 -9 -49 -22 -1 -6 -2 -15 -3 -21 -2 -16 -38 -11 -45 6 -3 9 -6 36 -6 60 0 48 6 51 57 34z"/> <path d="M2648 1959 c-24 -13 -23 -36 2 -49 11 -6 20 -17 20 -25 0 -8 9 -15 20 -15 22 0 40 34 40 76 0 21 -5 24 -32 24 -18 0 -41 -5 -50 -11z m72 -18 c0 -18 -12 -41 -22 -41 -13 0 -38 26 -38 39 0 6 14 11 30 11 17 0 30 -4 30 -9z"/> <path d="M386 1852 c-4 -6 -2 -21 5 -33 l11 -21 21 21 c11 11 17 24 13 28 -5 5 -11 2 -13 -5 -4 -10 -8 -9 -17 4 -9 12 -15 13 -20 6z"/> <path d="M2717 1833 c-3 -5 -8 -30 -11 -58 -8 -61 11 -140 55 -228 23 -44 34 -83 39 -137 l7 -75 2 61 c1 65 -7 98 -44 180 -38 82 -47 126 -43 197 3 68 3 73 -5 60z"/> <path d="M447 1792 c-10 -11 -17 -35 -17 -57 0 -52 30 -145 47 -145 29 0 125 55 144 82 23 31 19 56 -11 83 -17 15 -24 16 -46 7 -33 -16 -34 -15 -34 8 0 19 -27 40 -53 40 -8 0 -21 -8 -30 -18z m65 -52 c8 -13 19 -18 33 -14 25 6 48 -17 43 -42 -2 -9 -26 -30 -55 -46 l-52 -29 -15 52 c-14 47 -14 55 -1 76 19 28 31 29 47 3z"/> <path d="M343 1781 c-3 -11 -13 -21 -24 -24 -27 -7 -23 -36 7 -47 44 -17 64 -13 64 14 0 58 -35 100 -47 57z"/> <path d="M200 1722 c0 -25 61 -80 100 -90 23 -5 40 -6 40 -1 0 5 -8 9 -19 9 -10 0 -31 12 -48 28 -58 54 -73 65 -73 54z"/> <path d="M222 1588 c30 -22 70 -31 107 -23 25 5 33 1 60 -32 49 -60 73 -134 73 -233 0 -101 -20 -165 -86 -278 -62 -106 -73 -136 -80 -217 -5 -66 -5 -67 5 -20 21 106 34 139 87 228 68 115 79 141 91 213 17 112 -19 253 -82 322 -15 16 -17 22 -6 22 12 0 12 2 0 9 -7 5 -31 6 -52 4 -21 -3 -46 -2 -56 2 -16 7 -15 9 7 15 16 4 5 6 -33 6 -57 0 -57 -1 -35 -18z"/> <path d="M511 1413 c17 -41 14 -162 -5 -226 -19 -64 -46 -115 -90 -169 -32 -37 -70 -98 -63 -98 2 0 16 17 30 38 14 20 39 53 57 72 79 89 115 231 90 350 -7 33 -17 60 -21 60 -5 0 -4 -12 2 -27z"/> <path d="M218 1368 c8 -39 8 -66 -3 -179 -7 -75 -5 -91 13 -133 22 -49 72 -116 72 -96 0 13 -30 73 -40 80 -19 13 -30 54 -30 108 0 80 11 153 21 146 15 -9 10 14 -12 61 -25 53 -31 57 -21 13z"/> <path d="M2670 1330 l-35 -6 27 -8 c17 -5 43 -2 70 7 l43 15 -35 0 c-19 0 -51 -4 -70 -8z"/> <path d="M2703 1287 c-44 -23 -54 -37 -26 -37 15 0 93 47 93 56 0 9 -28 1 -67 -19z"/> <path d="M2808 1270 c-6 -38 6 -47 38 -29 26 14 30 29 12 47 -22 22 -45 14 -50 -18z"/> <path d="M2764 1272 c-18 -12 -56 -73 -50 -79 8 -9 35 17 52 50 16 30 15 41 -2 29z"/> <path d="M2790 1204 c0 -39 24 -117 33 -108 11 11 8 45 -6 86 -18 50 -27 58 -27 22z"/> <path d="M370 1163 c0 -10 -12 -36 -25 -58 -19 -30 -25 -53 -23 -90 0 -29 3 -39 5 -22 3 18 9 25 16 20 9 -5 9 -3 0 8 -7 8 -9 25 -6 38 4 17 8 20 15 9 6 -9 7 -5 2 12 -3 14 -3 22 2 17 8 -8 34 45 34 69 0 21 -20 17 -20 -3z"/> <path d="M469 998 c-2 -16 2 -42 6 -46 2 -2 13 1 24 8 24 12 29 35 6 26 -9 -3 -15 0 -15 9 0 18 -20 20 -21 3z"/> <path d="M410 892 c-23 -11 -43 -33 -58 -62 -21 -41 -23 -54 -19 -150 4 -82 13 -129 40 -218 20 -63 38 -116 41 -119 8 -8 202 65 278 104 82 43 154 116 164 167 21 115 -116 214 -205 148 -41 -30 -46 -28 -46 17 -1 46 -25 85 -68 111 -40 25 -81 25 -127 2z m40 -25 c0 6 9 11 20 10 34 -2 22 -15 -21 -22 -22 -4 -43 -13 -46 -21 -7 -19 -20 -18 -20 1 0 8 2 13 5 11 2 -3 14 4 25 15 16 14 23 16 29 7 6 -10 8 -10 8 -1z m96 -45 c29 -25 44 -55 44 -91 0 -36 4 -37 37 -11 50 39 128 19 159 -41 53 -103 -39 -196 -281 -284 -38 -13 -72 -21 -76 -17 -10 10 -46 129 -58 190 -14 67 -14 162 -1 199 25 66 125 98 176 55z"/> <path d="M443 770 c-39 -16 -63 -68 -61 -130 l1 -55 6 57 c7 65 33 107 76 121 53 18 117 -37 107 -90 -3 -16 10 -17 25 -2 8 8 7 16 -3 28 -8 9 -25 29 -37 44 -24 31 -77 43 -114 27z"/> <path d="M657 689 c51 -15 76 -55 69 -109 -4 -37 -3 -41 6 -26 16 29 11 86 -10 106 -26 25 -58 40 -79 39 -10 0 -4 -5 14 -10z"/> <path d="M214 795 c-4 -8 -15 -15 -25 -15 -29 0 -23 -28 11 -45 33 -17 60 -20 60 -5 0 6 -7 10 -16 10 -8 0 -25 5 -36 11 -16 9 -18 13 -7 20 7 4 18 4 25 -2 13 -11 28 16 18 32 -8 14 -24 11 -30 -6z"/> <path d="M138 630 c-31 -31 -35 -64 -13 -114 7 -17 5 -18 -18 -12 -37 9 -73 -11 -92 -51 -33 -69 17 -135 113 -149 36 -5 252 14 252 22 0 27 -49 202 -66 236 -51 100 -117 126 -176 68z m103 -20 c24 -13 25 -33 2 -27 -29 6 -72 -21 -79 -49 -5 -19 -9 -22 -15 -12 -14 21 -10 44 12 72 22 28 48 33 80 16z m20 -50 c25 -14 54 -72 68 -138 6 -29 11 -57 11 -62 0 -12 -122 -24 -165 -16 -66 13 -95 67 -58 108 9 10 27 18 39 18 21 0 23 4 17 30 -10 53 38 86 88 60z m-149 -93 c-30 -32 -30 -90 0 -111 30 -22 19 -27 -20 -10 -19 7 -36 23 -39 34 -3 11 -9 18 -13 15 -14 -9 -22 14 -11 32 8 14 11 15 12 3 0 -8 4 -4 8 10 6 21 44 45 80 49 3 1 -5 -9 -17 -22z"/> <path d="M806 464 c-10 -26 -7 -33 14 -31 11 1 20 4 20 8 0 15 -12 39 -20 39 -4 0 -11 -7 -14 -16z"/> <path d="M1570 443 c-25 -8 -53 -23 -62 -34 -26 -26 -22 -36 5 -12 28 26 68 37 60 17 -3 -8 -10 -14 -16 -14 -6 0 -8 -3 -4 -6 3 -4 19 4 35 17 16 13 38 29 48 36 18 11 18 12 -1 12 -11 0 -40 -7 -65 -16z"/> <path d="M1456 429 c-14 -11 -35 -39 -46 -62 -23 -47 -23 -47 -11 -47 5 0 17 18 27 40 10 22 23 40 29 40 11 0 39 39 32 46 -2 2 -16 -5 -31 -17z"/> <path d="M925 410 c-4 -7 -31 -23 -59 -37 -28 -13 -42 -21 -31 -18 18 4 17 3 -4 -15 -28 -24 -57 -25 -122 -4 -69 23 -72 12 -4 -16 37 -15 65 -20 86 -16 49 9 162 96 147 112 -3 3 -9 0 -13 -6z"/> <path d="M1697 358 c-12 -6 -17 -22 -17 -58 0 -76 4 -81 53 -64 41 14 77 40 77 55 0 15 -33 40 -46 35 -7 -3 -16 3 -19 14 -7 23 -26 31 -48 18z m39 -43 c4 -8 12 -15 20 -15 8 0 14 -6 14 -13 0 -39 -65 -52 -72 -14 -6 33 2 57 18 57 8 0 17 -7 20 -15z"/> <path d="M1540 337 c-32 -20 -33 -22 -12 -25 19 -3 92 32 92 44 0 12 -50 1 -80 -19z"/> <path d="M2760 285 c0 -27 4 -35 18 -35 40 1 72 50 32 50 -11 0 -20 5 -20 10 0 6 -7 10 -15 10 -10 0 -15 -11 -15 -35z"/> <path d="M308 291 c-49 -10 -70 -29 -66 -60 2 -20 9 -27 30 -29 19 -2 28 -10 30 -25 4 -29 47 -36 65 -11 7 10 13 44 13 76 0 64 1 63 -72 49z m62 -50 c0 -41 -20 -67 -45 -57 -8 3 -15 12 -15 20 0 8 -10 16 -22 18 -12 2 -23 8 -25 15 -5 15 44 42 80 43 25 0 27 -3 27 -39z"/> <path d="M570 273 c28 -17 64 -28 97 -31 61 -5 123 5 123 19 0 7 -11 8 -32 2 -57 -14 -121 -9 -169 15 -62 30 -74 28 -19 -5z"/> <path d="M1300 293 c-14 -3 -74 -19 -135 -38 -153 -45 -241 -58 -354 -52 -67 4 -82 3 -51 -3 122 -23 280 -6 440 47 73 24 101 28 200 28 110 0 119 -2 180 -32 36 -17 74 -40 85 -50 53 -47 65 -56 65 -48 0 4 -20 27 -45 50 -49 46 -110 79 -177 95 -43 9 -160 11 -208 3z"/> <path d="M500 241 c44 -52 83 -75 122 -69 18 2 11 8 -32 24 -30 11 -54 26 -52 32 1 7 -5 12 -13 12 -8 0 -22 11 -31 25 -9 14 -21 25 -26 25 -5 0 9 -22 32 -49z"/> <path d="M445 234 c14 -47 36 -79 67 -95 24 -13 23 -7 -7 27 -14 16 -34 48 -45 72 -26 55 -33 54 -15 -4z"/> <path d="M1780 238 c-30 -11 -57 -22 -59 -24 -8 -7 34 -89 63 -121 16 -20 38 -33 51 -33 26 0 55 24 55 45 0 22 -18 27 -25 6 -9 -29 -31 -32 -60 -9 -22 17 -72 97 -63 102 47 30 145 36 155 10 6 -16 -13 -38 -40 -47 -6 -2 -7 -9 -3 -15 9 -15 61 9 70 33 12 32 -29 76 -71 74 -10 0 -43 -9 -73 -21z"/> <path d="M2604 247 c-7 -18 21 -64 48 -78 11 -6 20 -9 21 -7 1 2 10 17 20 35 20 36 21 43 7 43 -5 0 -12 -11 -16 -25 -3 -14 -9 -25 -13 -25 -17 1 -34 20 -36 41 -2 27 -22 37 -31 16z"/> <path d="M77 244 c-8 -9 11 -44 24 -44 6 0 9 10 7 22 -3 22 -19 34 -31 22z"/> <path d="M1262 241 c-16 -9 -7 -54 14 -71 14 -13 34 -5 34 12 0 6 8 16 17 23 35 26 -27 60 -65 36z m48 -18 c0 -17 -19 -35 -29 -29 -18 12 -12 36 9 36 11 0 20 -3 20 -7z"/> <path d="M2878 243 c-9 -2 -34 -13 -55 -24 l-38 -19 35 4 c48 5 101 26 94 37 -5 9 -8 10 -36 2z"/> <path d="M2292 178 c-16 -16 -15 -55 1 -61 16 -6 57 10 57 23 0 9 -35 50 -43 50 -2 0 -8 -5 -15 -12z"/> <path d="M2734 169 c-98 -110 -314 -130 -481 -45 -35 17 -75 28 -115 31 l-63 4 50 -9 c28 -5 101 -30 164 -55 88 -35 127 -45 170 -45 104 0 214 42 277 106 19 19 31 34 26 34 -5 0 -17 -10 -28 -21z"/> <path d="M2880 178 c0 -20 -39 -25 -57 -7 -6 6 -19 9 -29 6 -15 -3 -11 -8 18 -20 30 -14 51 -15 105 -9 66 8 67 9 39 21 -16 6 -36 9 -44 6 -9 -3 -19 0 -24 7 -6 10 -8 8 -8 -4z"/> <path d="M2047 125 c34 -24 98 -44 112 -36 8 5 -5 13 -34 21 -25 7 -48 17 -51 21 -3 5 -15 9 -27 9 l-21 0 21 -15z"/> <path d="M1945 120 c3 -6 11 -10 17 -10 5 0 28 -15 50 -34 42 -36 105 -54 134 -38 12 7 4 10 -34 15 -60 7 -108 30 -116 55 -3 10 -17 19 -32 20 -14 1 -23 -2 -19 -8z"/> <path d="M1927 93 c-4 -3 -6 -18 -6 -32 1 -25 2 -24 8 4 l6 30 23 -37 c20 -32 40 -48 61 -48 4 0 -12 20 -36 45 -46 48 -46 48 -56 38z"/> </g> </svg> 