 <svg  version="1.0" xmlns="http://www.w3.org/2000/svg"  width="300.000000pt" height="300.000000pt" viewBox="0 0 300.000000 300.000000"  preserveAspectRatio="xMidYMid meet">  <g transform="translate(0.000000,300.000000) scale(0.100000,-0.100000)" fill="#f5d819" stroke="none"> <path d="M2145 2578 c-17 -19 -20 -38 -20 -111 0 -48 0 -87 -1 -87 -1 0 -24 23 -51 50 -54 54 -80 61 -107 31 -15 -16 -17 -33 -13 -100 7 -104 -5 -106 -89 -13 -54 59 -77 75 -185 130 -153 77 -246 102 -406 109 -112 5 -129 3 -220 -22 -124 -35 -206 -73 -297 -137 -160 -115 -243 -221 -281 -360 -19 -70 4 -63 44 11 62 116 225 311 260 311 4 0 15 8 24 18 26 29 200 110 252 117 11 2 40 9 65 15 50 14 243 16 262 3 7 -4 18 -8 23 -8 117 -7 360 -126 425 -209 8 -10 25 -29 38 -41 30 -30 28 -35 -13 -28 -26 4 -41 1 -55 -12 -25 -23 -25 -41 0 -109 20 -51 25 -56 86 -86 36 -17 75 -30 87 -28 17 2 4 12 -48 38 -59 30 -74 42 -95 82 -35 66 -24 80 71 95 l74 11 59 -59 c32 -32 67 -61 77 -64 21 -7 26 -35 6 -35 -7 0 -13 -12 -12 -27 0 -26 -3 -28 -47 -31 -27 -2 -48 -8 -48 -13 0 -6 8 -9 18 -7 9 1 22 0 27 -4 6 -3 25 -9 43 -13 31 -6 32 -6 32 28 0 21 7 41 20 52 24 22 28 70 4 61 -17 -7 -26 -1 -96 69 -57 57 -89 117 -84 160 2 17 4 39 5 50 4 60 30 54 106 -22 48 -49 83 -113 89 -165 2 -15 9 -34 16 -42 6 -9 9 -19 6 -25 -11 -17 25 -21 49 -5 13 9 51 18 85 21 41 4 60 10 60 19 0 8 -9 14 -20 14 -12 0 -21 7 -21 18 -1 9 -3 28 -5 42 -2 14 -4 57 -5 95 -2 58 2 80 25 127 14 31 38 64 53 73 26 17 27 17 44 -4 23 -28 32 -104 26 -218 -4 -61 -11 -100 -21 -115 -18 -25 -22 -68 -6 -68 5 0 12 16 16 35 3 19 12 39 18 43 7 4 20 23 29 43 21 46 112 141 156 163 19 11 43 15 57 12 21 -6 24 -12 24 -50 0 -52 -28 -143 -52 -171 -41 -47 -48 -55 -48 -62 0 -5 -16 -19 -35 -32 -38 -26 -43 -36 -20 -45 8 -3 27 6 42 20 76 71 198 90 249 40 8 -9 22 -16 30 -16 8 0 14 -8 14 -17 -1 -26 -73 -74 -117 -78 -21 -1 -40 -4 -43 -5 -9 -4 -25 -7 -48 -8 -13 -1 -20 -6 -17 -12 10 -16 -11 -12 -25 4 -8 11 -18 12 -33 6 -12 -5 -34 -11 -49 -14 -31 -7 -37 -23 -12 -33 16 -6 208 12 253 24 20 5 23 3 18 -11 -4 -10 -3 -15 3 -11 6 3 10 3 10 -2 0 -4 13 -15 29 -25 16 -9 34 -25 40 -37 16 -30 -10 -40 -119 -46 -67 -3 -98 -1 -113 9 -12 8 -33 17 -45 21 -21 6 -23 4 -18 -13 5 -13 1 -22 -11 -28 -13 -5 -2 -9 37 -14 86 -11 149 -53 183 -123 15 -32 25 -62 21 -68 -19 -31 -230 46 -255 93 -5 10 -16 18 -24 18 -28 0 -15 -27 33 -65 27 -22 55 -55 63 -75 19 -43 25 -155 9 -165 -22 -14 -88 7 -117 35 -15 16 -32 30 -38 30 -5 0 -23 25 -39 54 -16 30 -32 53 -35 51 -4 -2 -6 12 -5 31 2 28 -1 34 -15 32 -17 -4 -17 -6 0 -88 12 -55 29 -89 29 -57 0 15 3 15 20 5 28 -18 25 -35 -9 -52 -16 -9 -31 -26 -35 -39 -3 -13 -22 -41 -41 -63 l-35 -38 -21 20 c-23 24 -49 111 -49 169 0 45 -12 71 -29 61 -7 -5 -9 -1 -5 11 5 15 4 16 -5 3 -6 -8 -11 -24 -11 -35 -1 -22 -70 -135 -113 -185 -29 -34 -57 -35 -57 -1 0 11 -5 23 -11 27 -22 13 7 204 31 204 17 0 68 81 63 101 -4 15 -8 17 -19 8 -8 -6 -14 -17 -14 -24 0 -21 -71 -74 -110 -84 -50 -13 -153 -21 -178 -14 -12 3 -22 13 -22 22 0 20 79 97 138 134 63 41 51 53 -17 17 -79 -42 -154 -117 -148 -148 4 -19 1 -22 -12 -15 -27 13 -117 6 -156 -12 -33 -16 -137 -126 -147 -156 -3 -9 -13 -6 -37 10 -55 40 -192 91 -243 91 -26 0 -58 4 -72 9 -18 7 -28 6 -36 -4 -12 -15 3 -31 20 -20 5 3 22 -1 38 -9 16 -8 34 -11 41 -7 13 9 57 -5 161 -49 95 -41 158 -99 181 -167 14 -44 5 -118 -18 -142 -33 -33 -104 -80 -133 -86 -16 -3 -34 -13 -41 -21 -7 -9 -31 -14 -70 -14 -37 0 -61 -5 -66 -13 -4 -8 -16 -16 -25 -20 -21 -8 -24 -37 -4 -37 25 0 46 12 46 26 0 15 1 15 70 18 25 1 54 7 65 13 11 6 39 17 62 24 24 6 50 20 59 31 27 29 34 21 27 -27 -6 -45 -5 -45 24 -45 16 0 54 15 84 33 30 18 95 52 144 75 95 46 129 81 189 192 13 25 30 46 38 48 8 1 41 -24 74 -57 32 -34 65 -61 72 -61 18 0 15 -15 -12 -47 -31 -38 -44 -63 -55 -111 -7 -34 -5 -49 12 -83 18 -36 19 -46 8 -75 -7 -19 -15 -47 -17 -62 -3 -15 -9 -43 -14 -62 -5 -19 -14 -80 -20 -135 -9 -90 -13 -102 -37 -122 -15 -13 -40 -28 -55 -34 -25 -10 -31 -8 -59 20 -29 30 -34 31 -97 27 -74 -5 -131 -25 -160 -56 -20 -22 -131 -41 -228 -39 -48 1 -56 5 -88 40 -34 39 -34 39 -97 33 -70 -6 -138 -36 -189 -84 -31 -29 -38 -31 -99 -29 -36 1 -84 6 -106 10 -22 4 -60 9 -85 12 -121 15 -207 47 -280 105 -60 49 -70 59 -70 71 0 5 -8 16 -18 23 -26 18 -95 124 -138 208 -90 181 -87 450 10 677 14 34 26 77 26 95 0 30 16 87 43 148 22 52 72 117 114 150 55 41 43 63 -13 27 -50 -32 -96 -81 -122 -132 -27 -51 -62 -168 -62 -207 0 -16 -7 -42 -15 -56 -13 -25 -37 -83 -36 -89 0 -2 -8 -27 -18 -55 -37 -103 -50 -305 -26 -408 21 -90 22 -95 33 -116 5 -11 18 -37 28 -59 20 -41 70 -122 89 -141 5 -6 21 -25 35 -44 124 -166 246 -226 495 -246 121 -9 205 -7 233 8 26 14 29 28 5 28 -17 0 -8 7 68 46 14 8 50 19 80 24 60 12 94 1 102 -32 8 -27 -28 -38 -128 -38 -77 0 -109 -10 -90 -28 20 -20 234 -1 247 22 6 11 24 13 76 9 44 -3 97 1 151 12 68 14 85 14 98 3 11 -9 47 -13 117 -13 92 1 107 3 167 32 37 17 70 36 73 42 15 24 24 8 22 -40 -2 -55 10 -69 58 -69 58 0 70 35 81 235 8 139 14 183 27 205 15 23 68 27 188 15 75 -7 204 11 221 31 6 8 19 14 29 14 10 0 38 20 62 44 25 26 57 47 76 51 19 4 31 12 29 18 -3 7 -10 11 -17 9 -7 -2 -25 8 -39 21 -58 54 -175 71 -272 40 -43 -14 -68 -32 -125 -90 -40 -40 -76 -73 -82 -73 -6 0 -25 -12 -42 -26 -35 -30 -44 -28 -35 8 4 16 18 29 39 36 42 15 112 76 131 113 27 51 11 153 -31 200 -17 19 -17 21 13 47 52 47 93 63 136 53 21 -5 46 -16 56 -25 38 -34 178 -82 359 -123 13 -3 28 -17 33 -30 5 -14 15 -23 22 -21 20 7 20 113 1 175 -33 104 -137 236 -206 259 -22 7 -34 18 -36 32 -4 25 10 29 31 8 19 -20 94 -39 123 -32 26 7 54 52 54 86 0 39 -30 79 -80 107 -27 15 -50 31 -50 34 0 4 26 7 58 8 31 0 71 5 87 9 27 8 30 13 29 47 -2 43 -44 91 -98 112 -23 8 -26 12 -11 12 28 1 81 35 100 65 23 34 8 58 -57 88 -81 39 -88 40 -140 22 -27 -9 -51 -14 -53 -12 -2 2 12 26 31 54 37 53 54 133 40 188 -10 39 -58 60 -103 45 -43 -14 -104 -67 -144 -126 -17 -24 -35 -43 -42 -43 -8 0 -9 3 -1 8 33 22 34 175 0 239 -40 78 -120 44 -168 -72 l-16 -40 -11 28 c-6 16 -11 32 -11 36 0 16 -90 91 -108 91 -9 0 -26 -10 -37 -22z m81 -40 c67 -72 91 -135 96 -257 3 -82 1 -85 -77 -93 l-38 -3 -19 65 c-32 108 -37 145 -32 217 8 115 19 126 70 71z m-425 -936 c14 -9 38 -26 53 -36 15 -11 35 -20 44 -21 32 -3 67 -18 100 -43 l33 -25 -24 -21 c-13 -12 -42 -55 -63 -96 -66 -129 -88 -149 -242 -226 -75 -38 -141 -69 -147 -69 -18 0 -4 76 21 113 22 32 24 43 18 92 -7 61 -33 119 -67 150 -21 20 -21 22 -4 34 9 7 17 16 17 20 0 4 16 23 35 43 19 20 35 39 35 42 0 11 61 44 94 52 48 11 69 9 97 -9z m274 1 c-17 -43 -24 -79 -19 -95 8 -26 -11 -22 -34 7 -22 28 -79 55 -116 55 -30 0 -56 9 -56 21 0 4 41 8 90 7 58 -1 95 3 102 10 19 19 41 15 33 -5z m219 -100 c-4 -62 -20 -142 -39 -185 -5 -13 -3 -18 8 -18 8 0 17 -7 21 -15 3 -8 12 -15 20 -15 23 0 46 -63 46 -127 0 -68 -15 -92 -87 -136 -35 -22 -46 -25 -74 -17 -18 5 -43 20 -56 32 -21 19 -23 28 -17 62 7 45 8 47 51 131 19 38 35 90 43 139 7 50 20 90 33 109 16 22 18 31 9 34 -9 3 -7 12 8 30 11 14 20 32 20 40 0 8 4 12 8 9 5 -3 7 -36 6 -73z m526 19 c47 -50 69 -85 122 -194 4 -10 8 -34 8 -53 0 -41 -9 -43 -78 -16 -27 11 -76 25 -110 31 -35 7 -65 17 -68 21 -3 5 -13 9 -22 9 -24 0 -112 47 -144 78 -33 31 -38 76 -9 92 16 8 30 3 71 -25 68 -46 119 -51 152 -15 18 19 20 63 4 88 -9 14 -1 42 11 42 5 0 33 -26 63 -58z m-749 -106 c17 -64 67 -77 94 -25 21 39 30 31 20 -18 -9 -42 -11 -53 -13 -68 -1 -5 -14 3 -28 18 -32 34 -43 28 -19 -10 10 -15 -7 -2 -37 30 -30 31 -60 57 -66 57 -18 0 -14 28 6 39 24 14 35 9 43 -23z m277 -46 c10 -17 10 -20 -2 -20 -8 0 -18 -9 -21 -20 -7 -23 -25 -27 -25 -5 0 18 21 65 29 65 3 0 12 -9 19 -20z m332 -299 c73 -21 75 -28 24 -72 -25 -22 -59 -46 -76 -55 -51 -26 -156 -41 -243 -34 -44 4 -86 5 -94 2 -9 -3 -12 -1 -7 6 4 7 16 12 26 12 11 0 33 19 52 44 70 94 195 131 318 97z m-517 -114 c16 -11 16 -20 7 -86 -6 -40 -12 -77 -15 -81 -3 -4 -5 -65 -6 -135 0 -70 -4 -135 -9 -144 -5 -9 -11 -24 -14 -33 -3 -11 -15 -18 -29 -18 -23 0 -24 2 -21 68 8 177 46 442 64 442 3 0 14 -6 23 -13z m-275 -434 l27 -28 -80 -6 c-84 -7 -152 -2 -161 12 -7 12 32 30 85 39 83 14 100 12 129 -17z"/> <path d="M1806 1530 c-41 -13 -94 -67 -118 -120 -11 -25 -28 -62 -39 -82 -12 -24 -15 -40 -8 -44 13 -8 10 -12 54 81 21 44 48 90 59 103 23 25 78 52 107 52 10 0 21 5 24 10 7 12 -38 12 -79 0z"/> <path d="M2525 2110 c-2 -4 4 -15 15 -25 11 -10 20 -24 20 -32 0 -16 26 -18 35 -2 4 6 -1 16 -11 23 -9 7 -14 18 -11 23 4 6 -4 13 -18 16 -14 2 -28 1 -30 -3z"/> <path d="M61 2060 c-23 -32 -51 -101 -51 -127 0 -13 3 -13 15 -3 8 7 15 18 15 24 0 7 16 38 35 70 40 66 40 66 22 66 -7 0 -23 -14 -36 -30z"/> <path d="M178 2053 c-45 -50 -67 -90 -82 -147 -14 -53 -13 -86 3 -86 4 0 15 31 24 69 16 62 65 150 89 159 10 5 11 32 0 32 -5 0 -20 -12 -34 -27z"/> <path d="M933 2018 c-17 -22 -23 -61 -11 -75 6 -7 23 -13 38 -13 21 0 30 7 40 29 18 44 10 66 -26 69 -17 2 -35 -3 -41 -10z"/> <path d="M1775 1979 c-26 -23 -33 -35 -25 -43 8 -8 13 -7 19 2 4 7 25 22 47 33 57 30 63 39 26 39 -21 0 -43 -10 -67 -31z"/> <path d="M2113 1949 c3 -9 2 -33 -3 -53 -4 -21 -4 -36 1 -36 5 0 9 -4 9 -10 0 -16 -22 -12 -35 7 -13 18 -35 10 -35 -13 0 -8 -5 -14 -10 -14 -5 0 -9 6 -7 13 1 8 -23 14 -83 17 -66 5 -96 12 -134 33 -27 14 -53 24 -58 21 -18 -11 14 -43 67 -64 47 -19 66 -22 124 -16 55 6 70 4 81 -8 7 -9 17 -13 24 -9 19 13 75 10 80 -3 7 -18 66 -48 66 -34 0 6 -16 26 -35 44 -28 27 -35 41 -35 72 0 22 -5 46 -11 54 -9 13 -10 13 -6 -1z"/> <path d="M1215 1920 c-41 -27 -38 -43 11 -55 23 -5 48 -16 57 -23 17 -14 125 -13 134 1 3 5 0 21 -7 37 -23 55 -137 78 -195 40z m130 -24 c52 -22 45 -40 -13 -33 -55 6 -104 26 -96 38 8 14 71 10 109 -5z"/> <path d="M2583 1890 c-28 -58 -28 -58 0 -53 16 3 26 16 35 44 15 49 15 56 0 56 -7 -1 -23 -22 -35 -47z"/> <path d="M1582 1901 c-8 -5 -12 -22 -10 -42 3 -29 7 -34 31 -37 36 -4 57 13 57 48 0 36 -43 53 -78 31z"/> <path d="M2533 1796 c-7 -8 -18 -16 -25 -19 -9 -3 -8 -9 7 -20 17 -13 22 -13 42 2 26 19 29 36 7 45 -19 7 -17 8 -31 -8z"/> <path d="M2225 1768 c-4 -9 -4 -22 0 -28 8 -13 55 -13 55 0 0 6 -5 10 -11 10 -7 0 -18 8 -25 18 -12 16 -13 16 -19 0z"/> <path d="M2475 1761 c-6 -6 -37 -11 -70 -13 -49 -2 -60 -6 -63 -22 -3 -12 0 -16 8 -11 7 4 33 7 59 7 51 -2 64 4 74 31 7 19 5 21 -8 8z"/> <path d="M2284 1705 c3 -9 9 -28 12 -41 10 -38 26 -28 22 13 -2 28 -8 39 -22 41 -14 3 -17 0 -12 -13z"/> </g> </svg> 